# xmcd
# 
# Track frame offsets:
#     150
#     21110
#     55692
#     76655
#     108992
#     153962
#     180112
#     208430
# 
# Disc length: 3187
# 
# Revision: 2
# Processed by: cddbd v1.5.2PL0 Copyright (c) Steve Scherf et al.
# Submitted via: BonkEnc v1.0.6
# 
DISCID=550c7108
DTITLE=Manhattan Jazz Quintet - Take The A Train
DYEAR=2004
DGENRE=Jazz
TTITLE0=The Theme
TTITLE1=Blue Minor
TTITLE2=Take The A Train
TTITLE3=A Hard Days Night
TTITLE4=What A Wonderful World
TTITLE5=Cabo Frio
TTITLE6=Besame Mucho
TTITLE7=Summertime
EXTD=YEAR: 2004
EXTT0=
EXTT1=
EXTT2=
EXTT3=
EXTT4=
EXTT5=
EXTT6=
EXTT7=
PLAYORDER=
